<svg xmlns="http://www.w3.org/2000/svg" viewBox="0 0 176 111">
<rect fill="white" x="1" y="1" width="172" height="107" shape-rendering="crispEdges"/>
<rect fill="#545454" x="3" y="3" width="172" height="107" shape-rendering="crispEdges"/>
<rect fill="#c5c5c5" x="3" y="3" width="170" height="105" shape-rendering="crispEdges"/>
<rect fill="#c5c5c5" x="2" y="108" width="1" height="1" shape-rendering="crispEdges"/>
<rect fill="#c5c5c5" x="173" y="2" width="1" height="1" shape-rendering="crispEdges"/>
<rect fill="#545454" x="172" y="107" width="1" height="1" shape-rendering="crispEdges"/>
<rect fill="black" x="2" width="171" height="1" shape-rendering="crispEdges"/>
<rect fill="black" x="3" y="110" width="171" height="1" shape-rendering="crispEdges"/>
<rect fill="black" y="2" width="1" height="106" shape-rendering="crispEdges"/>
<rect fill="black" x="175" y="3" width="1" height="106" shape-rendering="crispEdges"/>
<rect fill="black" x="173" y="1" width="1" height="1" shape-rendering="crispEdges"/>
<rect fill="black" x="174" y="2" width="1" height="1" shape-rendering="crispEdges"/>
<rect fill="black" x="1" y="108" width="1" height="1" shape-rendering="crispEdges"/>
<rect fill="black" x="2" y="109" width="1" height="1" shape-rendering="crispEdges"/>
<rect fill="black" x="1" y="1" width="1" height="1" shape-rendering="crispEdges"/>
<rect fill="black" x="174" y="109" width="1" height="1" shape-rendering="crispEdges"/>
</svg>
